<svg class="svg-icon" style="width: 1em; height: 1em;vertical-align: middle;fill: currentColor;overflow: hidden;" viewBox="0 0 1024 1024" version="1.1" xmlns="http://www.w3.org/2000/svg"><path d="M533.779 410.516c-12.445-12.445-32.81-12.445-45.255 0L84.496 814.545c-12.445 12.445-12.445 32.81 0 45.255l76.471 76.471c12.445 12.445 32.81 12.445 45.255 0L610.25 532.242c12.445-12.445 12.445-32.81 0-45.255l-76.471-76.471zM938.171 479.471l-62.139-62.139c-12.445-12.445-32.81-12.445-45.255 0l-10.999 10.999-44.918-44.918 24.27-24.27c12.497-12.497 12.497-32.758 0-45.255l-98.692-98.692 0.153-0.153s-64.837-55.247-97.311-77.849C544.367 96.191 418.388 59.346 301.615 98.27c0 0 155.698 29.193 204.353 116.773 49.793 89.628 32.49 154.87 29.576 164.258l-0.172 0.172 0.09 0.09c-0.189 0.596-0.301 0.91-0.301 0.91l0.606-0.606 98.692 98.692c12.497 12.497 32.758 12.497 45.255 0l18.667-18.667 44.918 44.918-10.459 10.459c-12.445 12.445-12.445 32.81 0 45.255l62.139 62.139c12.445 12.445 32.81 12.445 45.255 0l97.937-97.937c12.445-12.445 12.445-32.81 0-45.255z"  /></svg>